<?xml version="1.0" encoding="utf-8"?>
<!-- Generator: Adobe Illustrator 24.1.2, SVG Export Plug-In . SVG Version: 6.00 Build 0)  -->
<svg version="1.1" id="Layer_1" xmlns="http://www.w3.org/2000/svg" xmlns:xlink="http://www.w3.org/1999/xlink" x="0px" y="0px"
	 viewBox="0 0 595.3 429" style="enable-background:new 0 0 595.3 429;" xml:space="preserve">
<style type="text/css">
	.st0{fill:#F3F3F3;}
</style>
<path class="st0" d="M290.4,239.3V277c0,3.4,2.9,8.2,6,9.7c2.2,1.1,8.5,0.9,5.6,5.2h-35.7c-1.3-0.9-1-2.4,0-3.4
	c1.8-0.4,5-1.4,7.2-4.1c1-1.2,1.5-2.4,1.8-3.2c2.8-7.9,2.1-23.6,2-30.6c-0.1-2.6-0.1-6.5,0-11.4H256c-2.5,3.1-3.7,7-5.2,10.6
	c-2.7,6.4-9.4,21.9-10.1,28c-0.5,4-0.3,6.2,3.2,8.3c3.6,2.1,7,0.5,5.9,6.2H220c-1.1-5.5,2.1-4.3,4.8-6.4c3.9-3.1,5.7-7.7,7.8-12.1
	c12.8-27.3,28.1-63.9,37.8-92.3c2.6-7.5,2.8-11-5.5-14.4l-0.1-4h62.6c5.3,0,17.6,6,22,9.5c20.6,16.6,17.2,50.4-6.6,62.2
	c-2.7,1.4-11.9,4.5-14.5,4.5L290.4,239.3z M290.4,231.8h29.4c12.4,0,22.4-12.5,24.1-24c2.2-15.6-7.1-36.5-24.9-36.5h-28.6V231.8
	L290.4,231.8z M277.1,231.8c1.5-14.9,0.5-29.9-0.4-44.8l-18.6,44.8H277.1L277.1,231.8z"/>
</svg>
